<svg xmlns="http://www.w3.org/2000/svg" xmlns:svg="http://www.w3.org/2000/svg" xmlns:xlink="http://www.w3.org/1999/xlink" id="svg7087" width="48" height="48" version="1.1"><defs id="defs7089"><linearGradient id="linearGradient1086"><stop style="stop-color:#fffeff;stop-opacity:.10196079" id="stop1082" offset="0"/><stop style="stop-color:#fff;stop-opacity:0" id="stop1084" offset="1"/></linearGradient><linearGradient id="linearGradient1072"><stop style="stop-color:#667885;stop-opacity:1" id="stop1068" offset="0"/><stop style="stop-color:#485a6c;stop-opacity:1" id="stop1070" offset="1"/></linearGradient><linearGradient id="linearGradient6307"><stop id="stop6309" offset="0" style="stop-color:#c00;stop-opacity:1"/><stop id="stop6311" offset="1" style="stop-color:#c00;stop-opacity:0"/></linearGradient><linearGradient id="linearGradient6430" x1="33" x2="33" y1="1045.362" y2="991.362" gradientTransform="matrix(0.55555558,0,0,0.58490571,5.6666659,-572.64569)" gradientUnits="userSpaceOnUse" xlink:href="#linearGradient6420"/><linearGradient id="linearGradient6420"><stop id="stop6422" offset="0" style="stop-color:#000;stop-opacity:1"/><stop id="stop6424" offset="1" style="stop-color:#000;stop-opacity:0"/></linearGradient><linearGradient id="linearGradient4939" x1="16.806" x2="16.806" y1="20.62" y2="42.728" gradientTransform="matrix(1.2484283,0,0,1.6645713,3.6183622,-30.22389)" gradientUnits="userSpaceOnUse" xlink:href="#linearGradient6420"/><linearGradient id="linearGradient4035"><stop style="stop-color:#fff;stop-opacity:1" id="stop4037" offset="0"/><stop style="stop-color:#fff;stop-opacity:.23529412" id="stop4039" offset=".056"/><stop style="stop-color:#fff;stop-opacity:.15686275" id="stop4041" offset=".944"/><stop style="stop-color:#fff;stop-opacity:.39215687" id="stop4043" offset="1"/></linearGradient><radialGradient id="radialGradient5299" cx="7.118" cy="9.957" r="12.672" fx="7.118" fy="9.957" gradientTransform="matrix(0,8.9058797,-8.3440446,0,107.70052,-77.74932)" gradientUnits="userSpaceOnUse" xlink:href="#linearGradient2867-449-88-871-390-598-476-591-434-148-57-177-8-3-3-6-4-8-8-8-5-7"/><linearGradient id="linearGradient2867-449-88-871-390-598-476-591-434-148-57-177-8-3-3-6-4-8-8-8-5-7"><stop style="stop-color:#505050;stop-opacity:1" id="stop3750-1-0-7-6-6-1-3-9-3-9" offset="0"/><stop style="stop-color:#2b2b2b;stop-opacity:1" id="stop3752-3-7-4-0-32-8-923-0-7-0" offset=".262"/><stop style="stop-color:#0a0a0a;stop-opacity:1" id="stop3754-1-8-5-2-7-6-7-1-9-1" offset=".705"/><stop style="stop-color:#000;stop-opacity:1" id="stop3756-1-6-2-6-6-1-96-6-0-1" offset="1"/></linearGradient><linearGradient id="linearGradient4610" x1="16.806" x2="16.806" y1="20.62" y2="42.728" gradientTransform="matrix(1.5258568,0,0,1.9419998,-0.91089018,-39.01122)" gradientUnits="userSpaceOnUse" xlink:href="#linearGradient4035"/><linearGradient id="linearGradient6426" x1="33" x2="33" y1="1045.362" y2="991.362" gradientTransform="matrix(0.68888889,0,0,0.75471665,1.2666663,-746.07487)" gradientUnits="userSpaceOnUse" xlink:href="#linearGradient4035"/><linearGradient id="linearGradient4899" x1="33" x2="33" y1="988.844" y2="1047.687" gradientTransform="matrix(0.68627451,0,0,0.74576271,1.3529409,-736.95648)" gradientUnits="userSpaceOnUse" xlink:href="#linearGradient3994-617-9-9"/><linearGradient id="linearGradient3994-617-9-9"><stop style="stop-color:#5a5a5a;stop-opacity:1" id="stop4324-9-7" offset="0"/><stop style="stop-color:#34383c;stop-opacity:1" id="stop4326-1-1" offset="1"/></linearGradient><linearGradient id="linearGradient3688-166-749-654"><stop style="stop-color:#181818;stop-opacity:1" id="stop3088" offset="0"/><stop style="stop-color:#181818;stop-opacity:0" id="stop3090" offset="1"/></linearGradient><linearGradient id="linearGradient3688-464-309-604"><stop style="stop-color:#181818;stop-opacity:1" id="stop3094" offset="0"/><stop style="stop-color:#181818;stop-opacity:0" id="stop3096" offset="1"/></linearGradient><linearGradient id="linearGradient3702-501-757-795"><stop style="stop-color:#181818;stop-opacity:0" id="stop3100" offset="0"/><stop style="stop-color:#181818;stop-opacity:1" id="stop3102" offset=".5"/><stop style="stop-color:#181818;stop-opacity:0" id="stop3104" offset="1"/></linearGradient><linearGradient id="linearGradient10158" x1="25.058" x2="25.058" y1="47.028" y2="39.999" gradientTransform="matrix(1.0714286,0,0,0.57142849,-1.7857052,1023.5051)" gradientUnits="userSpaceOnUse" xlink:href="#linearGradient3702-501-757-795"/><radialGradient id="radialGradient10161" cx="4.993" cy="43.5" r="2.5" fx="4.993" fy="43.5" gradientTransform="matrix(1.9774219,0,0,0.79999996,-18.814371,-1083.1623)" gradientUnits="userSpaceOnUse" xlink:href="#linearGradient3688-464-309-604"/><radialGradient id="radialGradient10164" cx="4.996" cy="43.5" r="2.5" fx="4.996" fy="43.5" gradientTransform="matrix(2.0037839,2.1079247e-7,-5.1366217e-8,0.80000616,28.988131,1013.562)" gradientUnits="userSpaceOnUse" xlink:href="#linearGradient3688-166-749-654"/><linearGradient id="linearGradient3600-4"><stop id="stop3602-7" offset="0" style="stop-color:#f4f4f4;stop-opacity:1"/><stop id="stop3604-6" offset="1" style="stop-color:#dbdbdb;stop-opacity:1"/></linearGradient><linearGradient id="linearGradient3977"><stop id="stop3979" offset="0" style="stop-color:#fff;stop-opacity:1"/><stop id="stop3981" offset=".036" style="stop-color:#fff;stop-opacity:.23529412"/><stop id="stop3983" offset=".951" style="stop-color:#fff;stop-opacity:.15686275"/><stop id="stop3985" offset="1" style="stop-color:#fff;stop-opacity:.39215687"/></linearGradient><linearGradient id="linearGradient3104-5-8"><stop id="stop3106-2-4" offset="0" style="stop-color:#aaa;stop-opacity:1"/><stop id="stop3108-5-5" offset="1" style="stop-color:#c8c8c8;stop-opacity:1"/></linearGradient><linearGradient id="linearGradient11036" x1="22.004" x2="22.004" y1="47.813" y2="3.364" gradientTransform="matrix(0.66858377,0,0,0.67036989,7.3203809,4.6917)" gradientUnits="userSpaceOnUse" xlink:href="#linearGradient3104-5-8"/><linearGradient id="linearGradient11040" x1="24" x2="24" y1="5.564" y2="43" gradientTransform="matrix(0.56756757,0,0,0.75675671,10.378382,4.3396)" gradientUnits="userSpaceOnUse" xlink:href="#linearGradient3977"/><linearGradient id="linearGradient11043" x1="25.132" x2="25.132" y1=".985" y2="47.013" gradientTransform="matrix(0.62856997,0,0,0.63012397,8.9143197,6.4122)" gradientUnits="userSpaceOnUse" xlink:href="#linearGradient3600-4"/><linearGradient id="linearGradient11058" x1="32" x2="32" y1="1017.87" y2="1015.362" gradientTransform="matrix(0.68181818,0,0,1.399999,1.4999997,-398.14376)" gradientUnits="userSpaceOnUse" spreadMethod="reflect" xlink:href="#linearGradient6307"/><linearGradient id="linearGradient3058" x1="39" x2="39" y1="7.007" y2="47.986" gradientTransform="translate(-5.0000084,-4.9999888)" gradientUnits="userSpaceOnUse" xlink:href="#linearGradient3924-1"/><linearGradient id="linearGradient3924-1"><stop id="stop3926-3" offset="0" style="stop-color:#fff;stop-opacity:1"/><stop id="stop3928-91" offset=".028" style="stop-color:#fff;stop-opacity:.23529412"/><stop id="stop3930-6" offset=".974" style="stop-color:#fff;stop-opacity:.15686275"/><stop id="stop3932-6" offset="1" style="stop-color:#fff;stop-opacity:.39215687"/></linearGradient><linearGradient id="linearGradient5514" x1="64.634" x2="64.634" y1="10.926" y2="46.313" gradientTransform="translate(-32,-5.8248717)" gradientUnits="userSpaceOnUse" xlink:href="#linearGradient6420"/><filter style="color-interpolation-filters:sRGB" id="filter5580" width="1.07" height="1.153" x="-.035" y="-.076"><feGaussianBlur id="feGaussianBlur5582" stdDeviation="1.112"/></filter><linearGradient id="linearGradient5182" x1="65.036" x2="65.006" y1="-50.261" y2="-24.098" gradientTransform="matrix(0.29808638,0,0,0.45528462,4.5629222,27.725384)" gradientUnits="userSpaceOnUse" xlink:href="#linearGradient5176"/><linearGradient id="linearGradient5176"><stop id="stop5178" offset="0" style="stop-color:#000;stop-opacity:1"/><stop id="stop5180" offset="1" style="stop-color:#000;stop-opacity:.47402596"/></linearGradient><linearGradient id="linearGradient4953" x1="55.771" x2="55.771" y1="-51.253" y2="-22.753" gradientTransform="matrix(0.29808638,0,0,0.45528462,4.8610078,27.725384)" gradientUnits="userSpaceOnUse" xlink:href="#linearGradient5010"/><linearGradient id="linearGradient5010"><stop style="stop-color:#b1bfb1;stop-opacity:1" id="stop5012" offset="0"/><stop style="stop-color:#dae6da;stop-opacity:.94117647" id="stop5014" offset="1"/></linearGradient><linearGradient id="linearGradient5190" x1="64.983" x2="64.175" y1="-20.916" y2="-46.019" gradientTransform="matrix(0.29808638,0,0,0.45528462,4.5629222,27.725384)" gradientUnits="userSpaceOnUse" xlink:href="#linearGradient5184"/><linearGradient id="linearGradient5184"><stop id="stop5186" offset="0" style="stop-color:#fff;stop-opacity:1"/><stop id="stop5188" offset="1" style="stop-color:#fff;stop-opacity:0"/></linearGradient><linearGradient id="linearGradient4650-6-72-7-6" x1="24" x2="24" y1="7.813" y2="39.683" gradientTransform="matrix(0.28175513,0,0,0.18455509,24.587755,20.984946)" gradientUnits="userSpaceOnUse" xlink:href="#linearGradient3924-1-2-0-5-4"/><linearGradient id="linearGradient3924-1-2-0-5-4"><stop id="stop3926-3-4-9-8-4" offset="0" style="stop-color:#fff;stop-opacity:1"/><stop id="stop3928-91-8-1-3-9" offset=".011" style="stop-color:#fff;stop-opacity:.23529412"/><stop id="stop3930-6-9-1-4-0" offset=".994" style="stop-color:#fff;stop-opacity:.15686275"/><stop id="stop3932-6-2-6-7-8" offset="1" style="stop-color:#fff;stop-opacity:.39215687"/></linearGradient><linearGradient id="linearGradient5310" x1="14.175" x2="14.175" y1="30.426" y2="40.416" gradientTransform="matrix(0.86874497,0,0,0.85356734,18.753075,-4.8872682)" gradientUnits="userSpaceOnUse" xlink:href="#linearGradient5221-1-5"/><linearGradient id="linearGradient5221-1-5"><stop id="stop5223-0-5" offset="0" style="stop-color:#fffeff;stop-opacity:.10196079"/><stop id="stop5225-4-3" offset="1" style="stop-color:#fff;stop-opacity:0"/></linearGradient><linearGradient id="linearGradient4650-6-72-7" x1="24" x2="24" y1="7.813" y2="39.683" gradientTransform="matrix(0.28175513,0,0,0.18455509,9.7501879,20.984946)" gradientUnits="userSpaceOnUse" xlink:href="#linearGradient3924-1-2-0-5-4"/><linearGradient id="linearGradient5252" x1="14.175" x2="14.175" y1="30.426" y2="40.416" gradientTransform="matrix(0.86874497,0,0,0.85356734,3.9155114,-4.8872682)" gradientUnits="userSpaceOnUse" xlink:href="#linearGradient1072"/><linearGradient id="linearGradient4650-6-72" x1="24" x2="24" y1="7.813" y2="39.683" gradientTransform="matrix(0.28175513,0,0,0.18455509,9.7501879,31.6921)" gradientUnits="userSpaceOnUse" xlink:href="#linearGradient3924-1-2-0-5-4"/><linearGradient id="linearGradient5227" x1="14.175" x2="14.175" y1="30.426" y2="40.416" gradientTransform="matrix(0.86874497,0,0,0.85356734,3.9155114,5.8198839)" gradientUnits="userSpaceOnUse" xlink:href="#linearGradient1086"/><linearGradient id="linearGradient4650-6" x1="24" x2="24" y1="7.813" y2="39.683" gradientTransform="matrix(0.28175513,0,0,0.18455509,24.587755,31.6921)" gradientUnits="userSpaceOnUse" xlink:href="#linearGradient3924-1-2-0-5-4"/><radialGradient id="radialGradient4685" cx="6.73" cy="9.957" r="12.672" fx="6.2" fy="9.957" gradientTransform="matrix(0,2.0786672,-3.6362421,0,67.884401,13.324496)" gradientUnits="userSpaceOnUse" xlink:href="#linearGradient2867-449-88-871-390-598-476-591-434-148-57-177-8-3-3-6-4-8-8-8-8"/><linearGradient id="linearGradient2867-449-88-871-390-598-476-591-434-148-57-177-8-3-3-6-4-8-8-8-8"><stop id="stop3750-1-0-7-6-6-1-3-9-2" offset="0" style="stop-color:#39a9e9;stop-opacity:1"/><stop id="stop3752-3-7-4-0-32-8-923-0-9" offset=".262" style="stop-color:#4db0ed;stop-opacity:1"/><stop id="stop3754-1-8-5-2-7-6-7-1-9" offset=".539" style="stop-color:#1b88cc;stop-opacity:1"/><stop id="stop3756-1-6-2-6-6-1-96-6-7" offset="1" style="stop-color:#1b88cc;stop-opacity:1"/></linearGradient></defs><metadata id="metadata7092"/><g id="g10676" transform="translate(0,-1004.3622)" style="opacity:.6"><rect id="rect2801" width="5" height="4" x="39" y="1046.362" style="opacity:1;fill:url(#radialGradient10164);fill-opacity:1;stroke:none"/><rect id="rect3696" width="5" height="4" x="-9" y="-1050.362" transform="scale(-1)" style="opacity:1;fill:url(#radialGradient10161);fill-opacity:1;stroke:none"/><rect id="rect3700" width="30" height="4" x="9" y="1046.362" style="opacity:1;fill:url(#linearGradient10158);fill-opacity:1;stroke:none"/></g><rect style="fill:url(#linearGradient4899);stroke:none" id="rect4897" width="35" height="44" x="6.5" y=".5" rx="1.5" ry="1.5"/><rect id="rect3993" width="35" height="44" x="6.5" y=".5" rx="1.5" ry="1.5" style="opacity:.5;fill:none;stroke:#0e141f;stroke-width:1;stroke-opacity:1"/><rect id="rect6741-5-0-2-3" width="33" height="42" x="7.5" y="1.5" rx=".5" ry=".5" style="fill:none;stroke:url(#linearGradient3058);stroke-width:1;stroke-linecap:round;stroke-linejoin:round;stroke-miterlimit:4;stroke-dasharray:none;stroke-dashoffset:0;stroke-opacity:1;font-variant-east_asian:normal;opacity:.35;vector-effect:none;fill-opacity:1"/><path id="rect5156" d="m 11.291107,4.276705 25.216631,0.1469056 c 0.373675,0.00215 0.732284,0.2737176 0.732126,0.7961948 l -0.0033,11.3190036 c -2.06e-4,0.68249 -0.437453,0.799812 -0.775988,0.800355 -6.339343,0.01019 -16.62492,0.0037 -25.065022,0.0036 -0.338532,-8e-6 -0.71539,-0.283255 -0.71539,-0.805733 V 5.2198054 c 0,-0.5224779 0.272537,-0.9431004 0.611071,-0.9431004 z" style="color:#000;display:inline;overflow:visible;visibility:visible;opacity:.4;fill:none;stroke:url(#linearGradient5190);stroke-width:3;stroke-linecap:round;stroke-linejoin:bevel;stroke-miterlimit:4;stroke-dasharray:none;stroke-dashoffset:0;stroke-opacity:1;marker:none;paint-order:fill markers stroke;enable-background:accumulate"/><path id="rect5158" d="m 11.312506,4.4284877 25.195232,-0.0047 c 0.453051,-8.4e-5 0.728343,0.2757024 0.728343,0.7981803 v 11.317217 c 0,0.522477 -0.286259,0.801368 -0.775246,0.801411 l -25.065407,0.002 c -0.383965,3.2e-5 -0.715391,-0.17071 -0.715391,-0.693189 V 5.1301427 c 0,-0.4382996 0.293937,-0.7015918 0.632469,-0.701655 z" style="color:#000;display:inline;overflow:visible;visibility:visible;fill:url(#linearGradient4953);fill-opacity:1;fill-rule:nonzero;stroke:none;stroke-width:.36831036;stroke-linejoin:bevel;stroke-miterlimit:4;stroke-dasharray:none;marker:none;paint-order:fill markers stroke;enable-background:accumulate"/><path id="rect5160" d="m 11.458897,4.7334347 24.989708,0.00372 c 0.261063,3.92e-5 0.463745,0.2295802 0.463745,0.5194025 V 16.500575 c 0,0.289822 -0.22464,0.522913 -0.53166,0.523144 l -24.929819,0.01872 c -0.318149,2.4e-4 -0.465815,-0.157506 -0.466019,-0.462459 l -0.0075,-11.323423 c -2.22e-4,-0.289823 0.238331,-0.5231823 0.481583,-0.5231459 z" style="opacity:.05;fill:none;stroke:url(#linearGradient5182);stroke-width:.36839399;stroke-linecap:round;stroke-linejoin:bevel;stroke-miterlimit:4;stroke-dasharray:none;stroke-dashoffset:0;stroke-opacity:1;paint-order:fill markers stroke"/><path id="path6175" d="m 15.147929,6.7349692 -0.728648,-0.00417 c -0.608436,-0.00345 -1.070971,0.5714798 -1.067348,1.2292959 -0.07458,3.1292389 0.04497,4.7038569 -0.03083,5.7658089 -0.02957,0.414309 -0.194652,0.563546 -0.315801,0.647038 -0.344756,0.244084 -0.951851,-0.09144 -0.951851,-0.09144 l -0.0011,0.869657 c 0,0 1.098942,0.246067 1.423109,0.06124 0.374846,-0.213676 0.767891,-0.560584 0.767891,-1.309533 0,-2.032816 -0.01902,-5.2078844 -0.01902,-5.7544335 -5.12e-4,-0.417988 0.02319,-0.520971 0.923141,-0.4921875 z" style="opacity:.8;fill:#272863;fill-opacity:1;stroke:none;stroke-width:.0587956;stroke-linecap:butt;stroke-linejoin:miter;stroke-miterlimit:4;stroke-dasharray:none;stroke-opacity:1"/><path id="path6720" d="m 16,9.6301083 c 0,0 0.264938,-0.2374015 0.446268,-0.3493748 0.192867,-0.1190975 0.511495,-0.2382757 0.861173,-0.059291 0.349678,0.1789845 0.55922,0.9685165 0.04731,1.4903975 l -1.774968,2.108848 V 13.5 h 2.915128 V 12.807631 H 16.5 l 1.639042,-2.024103 C 18.447841,10.403898 18.481421,9.748382 18.182224,9.22506 18.00577,8.9164007 17.758717,8.6516536 17.242111,8.55468 16.73638,8.4597475 16.378927,8.6110956 15.946805,8.8739205 15.817208,8.9527442 15.596376,9.1597129 15.596376,9.1597129 Z" style="opacity:.8;fill:#272863;fill-opacity:1;stroke:none;stroke-width:.02925155;stroke-linecap:butt;stroke-linejoin:miter;stroke-miterlimit:4;stroke-dasharray:none;stroke-opacity:1"/><path id="path6722" d="m 18.966986,10 h 3.350675 l 0,0.726495 h -0.476776 c 0.0066,1.908008 -0.153191,1.990087 0.285862,1.993024 l 0.310106,0.002 v 0.671282 c 0,0 -1.292411,0.164158 -1.303397,-0.989074 l -0.0033,-0.346397 0.0033,-1.334162 -0.961581,-0.0099 0,2.745819 h -0.728111 l 0,-2.732538 h -0.490021 z" style="opacity:.8;fill:#272863;fill-opacity:1;stroke:none;stroke-width:.1483302px;stroke-linecap:butt;stroke-linejoin:miter;stroke-opacity:1"/><path id="path6724" d="m 22.701271,9.998428 h 0.803562 l 0.780593,1.172707 0.76259,-1.172707 h 0.815732 l -1.052669,1.606702 1.126539,1.662103 h -0.827109 l -0.81585,-1.27428 -0.802557,1.274279 h -0.781599 l 1.0557,-1.671337 z" style="opacity:.8;fill:#272863;fill-opacity:1;stroke:none;stroke-width:.01462577;stroke-linecap:butt;stroke-linejoin:miter;stroke-miterlimit:4;stroke-dasharray:none;stroke-opacity:1"/><path id="path6741" d="m 29.518845,8.5419097 h 0.694737 V 13.269169 H 29.524907 V 12.84476 c 0,0 -0.819346,0.842161 -1.699543,0.372172 -0.617178,-0.329545 -0.726151,-1.129402 -0.692114,-1.828222 0.02894,-0.594171 0.248031,-1.110841 0.764666,-1.405745 0.369238,-0.21077 0.956225,-0.171042 1.303758,0.04319 0.182455,0.112473 0.346806,0.368883 0.478489,0.612414 0.07188,0.132916 0.04525,0.24085 0.04525,0.24085 L 29.5,11.290078 c 0,0 0.04537,-0.02015 -0.323057,-0.540278 C 29,10.5 28.490722,10.305046 28.192251,10.552175 27.726026,10.938217 27.63315,11.5 27.812792,12.15264 c 0.02959,0.107511 0.222229,0.574106 0.781012,0.635371 C 29.164716,12.850601 29.5,12 29.5,12 l 0.03191,-1.264231 z" style="opacity:.8;fill:#272863;fill-opacity:1;stroke:none;stroke-width:.01462577;stroke-linecap:butt;stroke-linejoin:miter;stroke-miterlimit:4;stroke-dasharray:none;stroke-opacity:1"/><path style="opacity:.7;fill:none;stroke:url(#linearGradient5514);stroke-width:1px;stroke-linecap:butt;stroke-linejoin:miter;stroke-opacity:1;filter:url(#filter5580)" id="path5258" d="M -6.350951,39.199177 -5.875,4.3001283 l 75.5,0.125 0.3125,34.5624997" transform="matrix(0.34238659,0,0,0.34238659,12.993727,3.2427245)"/><path style="opacity:.25;fill:#fff;fill-opacity:1;stroke:#fff;stroke-width:.36619368;stroke-linecap:round;stroke-linejoin:miter;stroke-miterlimit:4;stroke-dasharray:none;stroke-dashoffset:0;stroke-opacity:1;paint-order:fill markers stroke" id="path4931" d="m 11.4217,4.7780146 16.052623,0.00372 -6.288938,12.1923934 H 11.5522 c -0.333724,0 -0.519464,-0.08321 -0.519464,-0.423577 V 5.2971491 c 0,-0.3645772 0.127618,-0.519195 0.388964,-0.5191345 z"/><path id="rect5162" d="m 11.381896,4.4237879 25.12233,-0.00397 c 0.42974,-6.77e-5 0.731855,0.2816578 0.731855,0.8041371 l -1.4e-5,11.316907 c 0,0.491045 -0.349272,0.799676 -0.777022,0.799712 l -25.060956,0.002 c -0.338533,3e-5 -0.718066,-0.283055 -0.718066,-0.805533 V 5.2199833 c 0,-0.5224785 0.299019,-0.7961317 0.701859,-0.7961954 z" style="color:#000;display:inline;overflow:visible;visibility:visible;opacity:1;fill:none;stroke:#303030;stroke-width:1;stroke-linecap:round;stroke-linejoin:bevel;stroke-miterlimit:4;stroke-dasharray:none;stroke-dashoffset:0;stroke-opacity:1;marker:none;paint-order:fill markers stroke;enable-background:accumulate"/><path id="path6724-7" d="m 30.593124,9.998428 h 0.803562 l 0.780593,1.172707 0.76259,-1.172707 h 0.815732 l -1.052669,1.606702 1.126539,1.662103 h -0.827109 l -0.81585,-1.27428 -0.802557,1.274279 h -0.781599 l 1.0557,-1.671337 z" style="opacity:.8;fill:#272863;fill-opacity:1;stroke:none;stroke-width:.01462577;stroke-linecap:butt;stroke-linejoin:miter;stroke-miterlimit:4;stroke-dasharray:none;stroke-opacity:1"/><rect id="rect5505-21-0" width="12.162" height="8.536" x="25.338" y="31.854" rx=".869" ry=".854" style="color:#000;display:inline;overflow:visible;visibility:visible;fill:url(#radialGradient4685);fill-opacity:1;fill-rule:nonzero;stroke:none;stroke-width:.86112261;marker:none;enable-background:accumulate"/><rect id="rect6741-1" width="10.425" height="6.829" x="26.137" y="32.707" style="opacity:.3;fill:none;stroke:url(#linearGradient4650-6);stroke-width:.86112261;stroke-linecap:round;stroke-linejoin:round;stroke-miterlimit:4;stroke-dasharray:none;stroke-dashoffset:0;stroke-opacity:1"/><rect id="rect5505-21-3-2-3" width="12.162" height="8.536" x="25.338" y="31.854" rx=".869" ry=".854" style="color:#000;display:inline;overflow:visible;visibility:visible;opacity:.4;fill:none;stroke:#162023;stroke-width:.86112267;stroke-linecap:round;stroke-linejoin:round;stroke-miterlimit:4;stroke-dasharray:none;stroke-dashoffset:0;stroke-opacity:.79215688;marker:none;enable-background:accumulate"/><rect id="rect5505-21-0-0" width="12.162" height="8.536" x="10.5" y="31.854" rx=".869" ry=".854" style="color:#000;display:inline;overflow:visible;visibility:visible;fill:url(#linearGradient5227);fill-opacity:1;fill-rule:nonzero;stroke:none;stroke-width:.86112261;marker:none;enable-background:accumulate"/><rect id="rect6741-1-8" width="10.425" height="6.829" x="11.3" y="32.707" style="opacity:.2;fill:none;stroke:url(#linearGradient4650-6-72);stroke-width:.86112261;stroke-linecap:round;stroke-linejoin:round;stroke-miterlimit:4;stroke-dasharray:none;stroke-dashoffset:0;stroke-opacity:1"/><rect id="rect5505-21-3-2-3-2" width="12.162" height="8.536" x="10.5" y="31.854" rx=".869" ry=".854" style="color:#000;display:inline;overflow:visible;visibility:visible;opacity:.4;fill:none;stroke:#000;stroke-width:.86112267;stroke-linecap:round;stroke-linejoin:round;stroke-miterlimit:4;stroke-dasharray:none;stroke-dashoffset:0;stroke-opacity:1;marker:none;enable-background:accumulate"/><rect id="rect5505-21-0-0-9" width="12.162" height="8.536" x="10.5" y="21.147" rx=".869" ry=".854" style="color:#000;display:inline;overflow:visible;visibility:visible;fill:url(#linearGradient5252);fill-opacity:1;fill-rule:nonzero;stroke:none;stroke-width:.86112261;marker:none;enable-background:accumulate"/><rect id="rect6741-1-8-0" width="10.425" height="6.829" x="11.3" y="22" style="opacity:.2;fill:none;stroke:url(#linearGradient4650-6-72-7);stroke-width:.86112261;stroke-linecap:round;stroke-linejoin:round;stroke-miterlimit:4;stroke-dasharray:none;stroke-dashoffset:0;stroke-opacity:1"/><rect id="rect5505-21-3-2-3-2-6" width="12.162" height="8.536" x="10.5" y="21.147" rx=".869" ry=".854" style="color:#000;display:inline;overflow:visible;visibility:visible;opacity:.4;fill:none;stroke:#000;stroke-width:.86112267;stroke-linecap:round;stroke-linejoin:round;stroke-miterlimit:4;stroke-dasharray:none;stroke-dashoffset:0;stroke-opacity:1;marker:none;enable-background:accumulate"/><rect id="rect5505-21-0-0-9-4" width="12.162" height="8.536" x="25.338" y="21.147" rx=".869" ry=".854" style="color:#000;display:inline;overflow:visible;visibility:visible;fill:url(#linearGradient5310);fill-opacity:1;fill-rule:nonzero;stroke:none;stroke-width:.86112261;marker:none;enable-background:accumulate"/><rect id="rect6741-1-8-0-4" width="10.425" height="6.829" x="26.137" y="22" style="opacity:.2;fill:none;stroke:url(#linearGradient4650-6-72-7-6);stroke-width:.86112261;stroke-linecap:round;stroke-linejoin:round;stroke-miterlimit:4;stroke-dasharray:none;stroke-dashoffset:0;stroke-opacity:1"/><rect id="rect5505-21-3-2-3-2-6-0" width="12.162" height="8.536" x="25.338" y="21.147" rx=".869" ry=".854" style="color:#000;display:inline;overflow:visible;visibility:visible;opacity:.4;fill:none;stroke:#000;stroke-width:.86112267;stroke-linecap:round;stroke-linejoin:round;stroke-miterlimit:4;stroke-dasharray:none;stroke-dashoffset:0;stroke-opacity:1;marker:none;enable-background:accumulate"/><path id="path4086-9" d="m 16.146842,34.80722 v 1.707132 h -1.737489 v 0.85357 h 1.737489 v 1.707134 h 0.868744 v -1.707134 h 1.737491 v -0.85357 H 17.015586 V 34.80722 Z M 29.259463,25.5 v 0.85357 h 0.542965 1.085931 1.085931 0.542967 1.08593 V 25.5 h -1.08593 -0.542967 -1.085931 -0.542965 z m -0.08145,10.194742 v 0.853566 h 0.542966 1.085931 1.085931 0.542965 1.085931 V 35.694742 H 32.43581 31.892845 30.806914 30.263949 Z m 0,1.707133 v 0.853567 h 0.542966 1.085931 1.085931 0.542965 1.085931 V 37.401875 H 32.43581 31.892845 30.806914 30.263949 Z" style="color:#000;font-style:normal;font-variant:normal;font-weight:400;font-stretch:normal;font-size:9.881423px;line-height:125%;font-family:Helvetica;-inkscape-font-specification:Helvetica;letter-spacing:0;word-spacing:0;display:inline;overflow:visible;visibility:visible;opacity:.2;fill:#000;fill-opacity:1;fill-rule:nonzero;stroke:none;stroke-width:.86112267;marker:none;enable-background:new"/><path id="path4086" d="m 16.146842,33.953652 v 1.707134 h -1.737489 v 0.853566 h 1.737489 v 1.707136 h 0.868744 v -1.707136 h 1.737491 V 35.660786 H 17.015586 V 33.953652 Z M 29.259463,24.646434 V 25.5 h 0.542965 1.085931 1.085931 0.542967 1.08593 v -0.853566 h -1.08593 -0.542967 -1.085931 -0.542965 z m -0.08145,10.194738 v 0.85357 h 0.542966 1.085931 1.085931 0.542965 1.085931 v -0.85357 H 32.43581 31.892845 30.806914 30.263949 Z m 0,1.707136 v 0.853567 h 0.542966 1.085931 1.085931 0.542965 1.085931 V 36.548308 H 32.43581 31.892845 30.806914 30.263949 Z" style="font-style:normal;font-variant:normal;font-weight:400;font-stretch:normal;font-size:9.881423px;line-height:125%;font-family:Helvetica;-inkscape-font-specification:Helvetica;letter-spacing:0;word-spacing:0;display:inline;fill:#fff;fill-opacity:1;stroke:none;stroke-width:.86112267;enable-background:new"/><path style="opacity:.2;fill:none;fill-opacity:1;stroke:#000;stroke-width:.44573656;stroke-linecap:butt;stroke-linejoin:miter;stroke-miterlimit:4;stroke-dasharray:none;stroke-opacity:1" id="path5193" d="m 14.611068,25.946991 h 0.815493 l 0.674727,1.621217 1.644459,-3.844547 h 0.617467 l -2.064765,4.438595 h -0.369505 l -0.677085,-1.770891 h -0.640791 z"/><path id="path5232" d="m 14.652913,24.989527 h 0.781238 l 0.665025,1.619336 1.630946,-3.642383 0.519289,-0.0028 -1.966587,4.241531 H 15.913319 L 15.236234,25.5 h -0.583321 z" style="opacity:1;fill:none;fill-opacity:1;stroke:#fff;stroke-width:.52543885;stroke-linecap:butt;stroke-linejoin:miter;stroke-miterlimit:4;stroke-dasharray:none;stroke-opacity:1"/></svg>