<svg xmlns="http://www.w3.org/2000/svg" xmlns:svg="http://www.w3.org/2000/svg" xmlns:xlink="http://www.w3.org/1999/xlink" id="svg2" width="32" height="32" version="1.1"><defs id="defs4"><linearGradient id="linearGradient1076"><stop id="stop1072" offset="0" style="stop-color:#fffeff;stop-opacity:.10196079"/><stop id="stop1074" offset="1" style="stop-color:#fff;stop-opacity:0"/></linearGradient><linearGradient id="linearGradient1070"><stop id="stop1066" offset="0" style="stop-color:#667885;stop-opacity:1"/><stop id="stop1068" offset="1" style="stop-color:#485a6c;stop-opacity:1"/></linearGradient><linearGradient id="linearGradient6307"><stop id="stop6309" offset="0" style="stop-color:#c00;stop-opacity:1"/><stop id="stop6311" offset="1" style="stop-color:#c00;stop-opacity:0"/></linearGradient><linearGradient id="linearGradient4610" x1="16.806" x2="16.806" y1="20.62" y2="42.728" gradientTransform="matrix(1.063476,0,0,1.2484285,-1.362135,-24.54288)" gradientUnits="userSpaceOnUse" xlink:href="#linearGradient4035"/><linearGradient id="linearGradient4035"><stop style="stop-color:#fff;stop-opacity:1" id="stop4037" offset="0"/><stop style="stop-color:#fff;stop-opacity:.23529412" id="stop4039" offset=".056"/><stop style="stop-color:#fff;stop-opacity:.15686275" id="stop4041" offset=".944"/><stop style="stop-color:#fff;stop-opacity:.39215687" id="stop4043" offset="1"/></linearGradient><linearGradient id="linearGradient3688-166-749-654"><stop style="stop-color:#181818;stop-opacity:1" id="stop3088" offset="0"/><stop style="stop-color:#181818;stop-opacity:0" id="stop3090" offset="1"/></linearGradient><linearGradient id="linearGradient3688-464-309-604"><stop style="stop-color:#181818;stop-opacity:1" id="stop3094" offset="0"/><stop style="stop-color:#181818;stop-opacity:0" id="stop3096" offset="1"/></linearGradient><linearGradient id="linearGradient3702-501-757-795"><stop style="stop-color:#181818;stop-opacity:0" id="stop3100" offset="0"/><stop style="stop-color:#181818;stop-opacity:1" id="stop3102" offset=".5"/><stop style="stop-color:#181818;stop-opacity:0" id="stop3104" offset="1"/></linearGradient><linearGradient id="linearGradient4899" x1="33" x2="33" y1="989.742" y2="1047.672" gradientTransform="matrix(0.49019607,0,0,0.49152542,-0.17647063,-485.55087)" gradientUnits="userSpaceOnUse" xlink:href="#linearGradient3994-617-9-9"/><linearGradient id="linearGradient2867-449-88-871-390-598-476-591-434-148-57-177-8-3-3-6-4-8-8-8-5-7"><stop style="stop-color:#505050;stop-opacity:1" id="stop3750-1-0-7-6-6-1-3-9-3-9" offset="0"/><stop style="stop-color:#2b2b2b;stop-opacity:1" id="stop3752-3-7-4-0-32-8-923-0-7-0" offset=".262"/><stop style="stop-color:#0a0a0a;stop-opacity:1" id="stop3754-1-8-5-2-7-6-7-1-9-1" offset=".705"/><stop style="stop-color:#000;stop-opacity:1" id="stop3756-1-6-2-6-6-1-96-6-0-1" offset="1"/></linearGradient><radialGradient id="radialGradient5299" cx="7.118" cy="9.957" r="12.672" fx="7.118" fy="9.957" gradientTransform="matrix(0,5.3904009,-5.4667878,0,70.838273,-45.67712)" gradientUnits="userSpaceOnUse" xlink:href="#linearGradient2867-449-88-871-390-598-476-591-434-148-57-177-8-3-3-6-4-8-8-8-5-7"/><linearGradient id="linearGradient6426" x1="33" x2="33" y1="1045.362" y2="991.362" gradientTransform="matrix(0.46666667,0,0,0.47169811,0.60000006,-465.35945)" gradientUnits="userSpaceOnUse" xlink:href="#linearGradient4035"/><linearGradient id="linearGradient3994-617-9-9"><stop style="stop-color:#5a5a5a;stop-opacity:1" id="stop4324-9-7" offset="0"/><stop style="stop-color:#333;stop-opacity:1" id="stop4326-1-1" offset="1"/></linearGradient><linearGradient id="linearGradient3559" x1="25.058" x2="25.058" y1="47.028" y2="39.999" gradientTransform="matrix(0.71428574,0,0,0.42857137,-1.1904699,1031.2194)" gradientUnits="userSpaceOnUse" xlink:href="#linearGradient3702-501-757-795"/><radialGradient id="radialGradient3562" cx="4.993" cy="43.5" r="2.5" fx="4.993" fy="43.5" gradientTransform="matrix(1.5819375,0,0,0.59999997,-13.851497,-1075.9623)" gradientUnits="userSpaceOnUse" xlink:href="#linearGradient3688-464-309-604"/><radialGradient id="radialGradient3565" cx="4.996" cy="43.5" r="2.5" fx="4.996" fy="43.5" gradientTransform="matrix(1.6030271,1.5809435e-7,-4.1092973e-8,0.60000462,17.990504,1023.762)" gradientUnits="userSpaceOnUse" xlink:href="#linearGradient3688-166-749-654"/><linearGradient id="linearGradient3600-4"><stop id="stop3602-7" offset="0" style="stop-color:#f4f4f4;stop-opacity:1"/><stop id="stop3604-6" offset="1" style="stop-color:#dbdbdb;stop-opacity:1"/></linearGradient><linearGradient id="linearGradient3977"><stop id="stop3979" offset="0" style="stop-color:#fff;stop-opacity:1"/><stop id="stop3981" offset=".036" style="stop-color:#fff;stop-opacity:.23529412"/><stop id="stop3983" offset=".951" style="stop-color:#fff;stop-opacity:.15686275"/><stop id="stop3985" offset="1" style="stop-color:#fff;stop-opacity:.39215687"/></linearGradient><linearGradient id="linearGradient4772" x1="24" x2="24" y1="5.564" y2="43" gradientTransform="matrix(0.3513511,0,0,0.45945944,7.5670631,3.9743)" gradientUnits="userSpaceOnUse" xlink:href="#linearGradient3977"/><linearGradient id="linearGradient4775" x1="25.132" x2="25.132" y1=".985" y2="47.013" gradientTransform="matrix(0.39999906,0,0,0.39111142,6.4000223,5.0145)" gradientUnits="userSpaceOnUse" xlink:href="#linearGradient3600-4"/><linearGradient id="linearGradient4781" x1="32" x2="32" y1="1017.87" y2="1015.362" gradientTransform="matrix(0.45454545,0,0,1,1,21.999931)" gradientUnits="userSpaceOnUse" spreadMethod="reflect" xlink:href="#linearGradient6307"/><linearGradient id="linearGradient3031" x1="22.004" x2="22.004" y1="47.813" y2="3.364" gradientTransform="matrix(0.48571482,0,0,0.477213,2.694404,2.6384316)" gradientUnits="userSpaceOnUse" xlink:href="#linearGradient3104-5"/><linearGradient id="linearGradient3104-5"><stop id="stop3106-2" offset="0" style="stop-color:#aaa;stop-opacity:1"/><stop id="stop3108-5" offset="1" style="stop-color:#c8c8c8;stop-opacity:1"/></linearGradient><linearGradient id="linearGradient4161" x1="24" x2="24" y1="7.645" y2="46.175" gradientTransform="matrix(0.67567568,0,0,0.67567568,-3.216217,-3.216206)" gradientUnits="userSpaceOnUse" xlink:href="#linearGradient3924-0"/><linearGradient id="linearGradient3924-0"><stop id="stop3926-6" offset="0" style="stop-color:#fff;stop-opacity:1"/><stop id="stop3928-3" offset=".042" style="stop-color:#fff;stop-opacity:.23529412"/><stop id="stop3930-2" offset=".958" style="stop-color:#fff;stop-opacity:.15686275"/><stop id="stop3932-62" offset="1" style="stop-color:#fff;stop-opacity:.39215687"/></linearGradient><linearGradient id="linearGradient5514" x1="64.634" x2="64.634" y1="10.926" y2="46.313" gradientTransform="translate(-32,-5.8248717)" gradientUnits="userSpaceOnUse" xlink:href="#linearGradient6420"/><linearGradient id="linearGradient6420"><stop id="stop6422" offset="0" style="stop-color:#000;stop-opacity:1"/><stop id="stop6424" offset="1" style="stop-color:#000;stop-opacity:0"/></linearGradient><filter style="color-interpolation-filters:sRGB" id="filter5580" width="1.07" height="1.153" x="-.035" y="-.076"><feGaussianBlur id="feGaussianBlur5582" stdDeviation="1.112"/></filter><linearGradient id="linearGradient5182" x1="65.036" x2="65.006" y1="-50.261" y2="-24.098" gradientTransform="matrix(0.2015393,0,0,0.30782266,2.9020608,18.273788)" gradientUnits="userSpaceOnUse" xlink:href="#linearGradient5176"/><linearGradient id="linearGradient5176"><stop id="stop5178" offset="0" style="stop-color:#000;stop-opacity:1"/><stop id="stop5180" offset="1" style="stop-color:#000;stop-opacity:.47402596"/></linearGradient><linearGradient id="linearGradient4953" x1="55.771" x2="55.771" y1="-51.253" y2="-22.753" gradientTransform="matrix(0.2015393,0,0,0.30782266,3.1035997,18.273788)" gradientUnits="userSpaceOnUse" xlink:href="#linearGradient5010"/><linearGradient id="linearGradient5010"><stop style="stop-color:#b1bfb1;stop-opacity:1" id="stop5012" offset="0"/><stop style="stop-color:#dae6da;stop-opacity:.94117647" id="stop5014" offset="1"/></linearGradient><linearGradient id="linearGradient5190" x1="64.983" x2="64.175" y1="-20.916" y2="-46.019" gradientTransform="matrix(0.2015393,0,0,0.30782266,2.9020608,18.273788)" gradientUnits="userSpaceOnUse" xlink:href="#linearGradient5184"/><linearGradient id="linearGradient5184"><stop id="stop5186" offset="0" style="stop-color:#fff;stop-opacity:1"/><stop id="stop5188" offset="1" style="stop-color:#fff;stop-opacity:0"/></linearGradient><linearGradient id="linearGradient3653-8-1" x1="24" x2="24" y1="9.853" y2="37.871" gradientTransform="matrix(0.16216216,0,0,0.10810812,6.608111,21.63336)" gradientUnits="userSpaceOnUse" xlink:href="#linearGradient4237-6-5-5"/><linearGradient id="linearGradient4237-6-5-5"><stop style="stop-color:#fff;stop-opacity:1" id="stop4239-3-9-6" offset="0"/><stop style="stop-color:#fff;stop-opacity:.23529412" id="stop4241-6-4-4" offset=".011"/><stop style="stop-color:#fff;stop-opacity:.15686275" id="stop4243-5-2-6" offset=".994"/><stop style="stop-color:#fff;stop-opacity:.39215687" id="stop4245-9-2-7" offset="1"/></linearGradient><linearGradient id="linearGradient3820" x1="-6.392" x2="-6.392" y1="30.306" y2="39.935" gradientTransform="matrix(0.5684211,0,0,0.60902257,14.703604,2.7655498)" gradientUnits="userSpaceOnUse" xlink:href="#linearGradient5221-1-5-5-4-5"/><linearGradient id="linearGradient5221-1-5-5-4-5"><stop style="stop-color:#fffeff;stop-opacity:.10196079" id="stop5223-0-5-4-2-1" offset="0"/><stop style="stop-color:#fff;stop-opacity:0" id="stop5225-4-3-2-1-1" offset="1"/></linearGradient><linearGradient id="linearGradient3653-8" x1="24" x2="24" y1="9.853" y2="37.871" gradientTransform="matrix(0.16216216,0,0,0.10810812,6.608111,13.63336)" gradientUnits="userSpaceOnUse" xlink:href="#linearGradient4237-6-5-5"/><linearGradient id="linearGradient3728" x1="-6.392" x2="-6.392" y1="30.306" y2="39.935" gradientTransform="matrix(0.5684211,0,0,0.60902257,14.703604,-5.2344502)" gradientUnits="userSpaceOnUse" xlink:href="#linearGradient1070"/><linearGradient id="linearGradient3671" x1="24" x2="24" y1="9.898" y2="37.94" gradientTransform="matrix(0.16216216,0,0,0.10810812,17.608112,21.633358)" gradientUnits="userSpaceOnUse" xlink:href="#linearGradient4237-6-5-5"/><linearGradient id="linearGradient3653" x1="24" x2="24" y1="9.853" y2="37.871" gradientTransform="matrix(0.16216216,0,0,0.10810812,17.608111,13.63336)" gradientUnits="userSpaceOnUse" xlink:href="#linearGradient4237-6-5-5"/><linearGradient id="linearGradient3656" x1="-6.392" x2="-6.392" y1="30.306" y2="39.935" gradientTransform="matrix(0.5684211,0,0,0.60902257,25.703604,-5.2344502)" gradientUnits="userSpaceOnUse" xlink:href="#linearGradient1076"/><radialGradient id="radialGradient3674" cx="6.73" cy="9.957" r="12.672" fx="6.2" fy="9.957" gradientTransform="matrix(0,1.461162,-2.3917868,0,45.485748,8.2031895)" gradientUnits="userSpaceOnUse" xlink:href="#linearGradient2867-449-88-871-390-598-476-591-434-148-57-177-8-3-3-6-4-8-8-8-8"/><linearGradient id="linearGradient2867-449-88-871-390-598-476-591-434-148-57-177-8-3-3-6-4-8-8-8-8"><stop style="stop-color:#39a9e9;stop-opacity:1" id="stop3750-1-0-7-6-6-1-3-9-2" offset="0"/><stop style="stop-color:#4db0ed;stop-opacity:1" id="stop3752-3-7-4-0-32-8-923-0-9" offset=".262"/><stop style="stop-color:#1b88cc;stop-opacity:1" id="stop3754-1-8-5-2-7-6-7-1-9" offset=".557"/><stop style="stop-color:#ac441f;stop-opacity:1" id="stop3756-1-6-2-6-6-1-96-6-7" offset="1"/></linearGradient></defs><metadata id="metadata7"/><g id="g3567" transform="translate(0,-1020.3622)" style="opacity:.4"><rect id="rect2801" width="4" height="3" x="26" y="1048.362" style="opacity:1;fill:url(#radialGradient3565);fill-opacity:1;stroke:none"/><rect id="rect3696" width="4" height="3" x="-6" y="-1051.362" transform="scale(-1)" style="opacity:1;fill:url(#radialGradient3562);fill-opacity:1;stroke:none"/><rect id="rect3700" width="20" height="3" x="6" y="1048.362" style="opacity:1;fill:url(#linearGradient3559);fill-opacity:1;stroke:none"/></g><rect style="fill:url(#linearGradient4899);stroke:none" id="rect4897" width="25" height="29" x="3.5" y=".5" rx="2" ry="2"/><rect id="rect3993" width="25" height="29" x="3.5" y=".5" rx="2" ry="2" style="opacity:.5;fill:none;stroke:#0e141f;stroke-width:.99999994;stroke-opacity:1"/><rect id="rect6741-5-0-2-3" width="23" height="27" x="4.5" y="1.5" rx="1" ry="1" style="fill:none;stroke:url(#linearGradient4161);stroke-width:1;stroke-linecap:round;stroke-linejoin:round;stroke-miterlimit:4;stroke-dasharray:none;stroke-dashoffset:0;stroke-opacity:1;font-variant-east_asian:normal;opacity:.35;vector-effect:none;fill-opacity:1"/><path id="rect5156" d="m 7.4510565,2.4198929 17.0492255,0.099325 c 0.252645,0.00146 0.495105,0.1850633 0.494998,0.5383157 l -0.0022,7.6528954 c -1.39e-4,0.461438 -0.295768,0.540761 -0.524654,0.541129 -4.286095,0.0069 -11.240281,0.0025 -16.9467215,0.0024 -0.2288851,-5e-6 -0.4836828,-0.191511 -0.4836828,-0.544765 v -7.65166 c 0,-0.3532529 0.1842652,-0.6376401 0.4131524,-0.6376401 z" style="color:#000;display:inline;overflow:visible;visibility:visible;opacity:.4;fill:none;stroke:url(#linearGradient5190);stroke-width:3;stroke-linecap:round;stroke-linejoin:bevel;stroke-miterlimit:4;stroke-dasharray:none;stroke-dashoffset:0;stroke-opacity:1;marker:none;paint-order:fill markers stroke;enable-background:accumulate"/><path id="rect5158" d="m 7.4655247,2.5225148 17.0347573,-0.00318 c 0.306313,-5.67e-5 0.492441,0.1864054 0.492441,0.5396581 v 7.6516921 c 0,0.353251 -0.193543,0.54181 -0.524153,0.541841 l -16.946981,0.0013 c -0.259603,5e-5 -0.4836838,-0.11539 -0.4836838,-0.468645 V 2.9969109 c 0,-0.2963389 0.1987344,-0.4743534 0.4276195,-0.4743961 z" style="color:#000;display:inline;overflow:visible;visibility:visible;fill:url(#linearGradient4953);fill-opacity:1;fill-rule:nonzero;stroke:none;stroke-width:.24901848;stroke-linejoin:bevel;stroke-miterlimit:4;stroke-dasharray:none;marker:none;paint-order:fill markers stroke;enable-background:accumulate"/><path id="rect5160" d="m 7.5645008,2.7286927 16.8958012,0.00252 c 0.176507,2.65e-5 0.313543,0.1552216 0.313543,0.3511734 v 7.6021959 c 0,0.195952 -0.151883,0.353548 -0.359462,0.353704 L 7.5590743,11.050944 C 7.343971,11.051103 7.2441321,10.944449 7.2439944,10.738268 l -0.0051,-7.6558842 C 7.2387455,2.8864316 7.4000343,2.7286549 7.5644987,2.7286795 Z" style="opacity:.05;fill:none;stroke:url(#linearGradient5182);stroke-width:.24907498;stroke-linecap:round;stroke-linejoin:bevel;stroke-miterlimit:4;stroke-dasharray:none;stroke-dashoffset:0;stroke-opacity:1;paint-order:fill markers stroke"/><path id="path6175" d="m 10.281432,3.8207819 -0.5372017,-0.00307 c -0.448575,-0.00255 -0.7895838,0.4213289 -0.7869127,0.9063099 -0.05498,2.3070609 0.03315,3.4679627 -0.02273,4.2508973 C 8.9127916,9.2803718 8.7910789,9.3903978 8.7017601,9.4519538 8.4475866,9.6319028 8,9.3845308 8,9.3845308 l -8.117e-4,0.6411632 c 0,0 0.8102056,0.181416 1.0492005,0.04515 0.2763587,-0.1575352 0.5661355,-0.4132982 0.5661355,-0.9654658 0,-1.4987131 -0.014023,-3.8395622 -0.014023,-4.2425108 C 9.6001239,4.5547042 9.6175933,4.4787792 10.281097,4.5 Z" style="opacity:.8;fill:#272863;fill-opacity:1;stroke:none;stroke-width:.04334762;stroke-linecap:butt;stroke-linejoin:miter;stroke-miterlimit:4;stroke-dasharray:none;stroke-opacity:1"/><path id="path6720" d="m 11.086406,5.9591564 c 0,0 0.06152,-0.083559 0.195207,-0.1661124 0.142195,-0.087806 0.334137,-0.1561397 0.59194,-0.024183 0.257803,0.1319582 0.279707,0.5743338 -0.0977,0.9590954 l -1.176029,1.5795775 v 0.5008294 h 2.149205 V 8.2979088 h -1.338185 l 1.075816,-1.492289 c 0.227662,-0.2798857 0.302137,-0.7907924 0.08155,-1.1766165 -0.130091,-0.227562 -0.361953,-0.3951279 -0.742824,-0.4666226 -0.372856,-0.06999 -0.636391,0.041592 -0.954977,0.2353631 -0.09554,0.058113 -0.258358,0.2107031 -0.258358,0.2107031 z" style="opacity:.8;fill:#272863;fill-opacity:1;stroke:none;stroke-width:.02156598;stroke-linecap:butt;stroke-linejoin:miter;stroke-miterlimit:4;stroke-dasharray:none;stroke-opacity:1"/><path id="path6722" d="m 13.097069,6.2279564 h 2.470315 v 0.5356153 h -0.351507 c 0.0049,1.406697 -0.112941,1.4672103 0.210754,1.4693758 l 0.22863,0.00149 v 0.4949091 c 0,0 -0.952843,0.1210268 -0.960941,-0.7292042 l -0.0024,-0.2553844 0.0024,-0.9836235 -0.708936,-0.00729 V 8.7782094 H 13.448576 V 6.7636199 h -0.361272 z" style="opacity:.8;fill:#272863;fill-opacity:1;stroke:none;stroke-width:.10935782px;stroke-linecap:butt;stroke-linejoin:miter;stroke-opacity:1"/><path id="path6724" d="m 15.850205,6.2267975 h 0.592434 l 0.5755,0.8645894 0.562226,-0.8645894 h 0.601408 l -0.776092,1.1845562 0.830552,1.2254011 H 17.626438 L 17.024946,7.6972798 16.433253,8.636754 h -0.576241 l 0.778324,-1.2322089 z" style="opacity:.8;fill:#272863;fill-opacity:1;stroke:none;stroke-width:.01078299;stroke-linecap:butt;stroke-linejoin:miter;stroke-miterlimit:4;stroke-dasharray:none;stroke-opacity:1"/><path id="path6741" d="M 20.876526,5.1529657 H 21.5 V 8.6381821 H 20.880995 V 8.3252825 c 0,0 -0.60407,0.6208908 -1.253004,0.2743873 -0.45502,-0.24296 -0.535361,-0.8326621 -0.510267,-1.3478738 0.02135,-0.4380583 0.182863,-0.818978 0.563756,-1.0363986 0.272225,-0.1553923 0.704987,-0.1261024 0.961208,0.031842 0.134518,0.082921 0.255686,0.2719625 0.352771,0.451508 0.05298,0.097994 0.03336,0.1775689 0.03336,0.1775689 l -0.14275,0.3516401 c 0,0 0.01,-0.063733 -0.261614,-0.4472029 C 20.494,6.5965862 20.31665,6.5621394 19.99223,6.674115 19.720125,6.7680339 19.595651,7.3338455 19.728094,7.8150105 19.749904,7.8942735 20,8.1774539 20.288276,8.1818813 c 0.345828,0.00531 0.582165,-0.6590937 0.582165,-0.6590937 l 0.01572,-0.7523788 z" style="opacity:.8;fill:#272863;fill-opacity:1;stroke:none;stroke-width:.01078299;stroke-linecap:butt;stroke-linejoin:miter;stroke-miterlimit:4;stroke-dasharray:none;stroke-opacity:1"/><path style="opacity:.7;fill:none;stroke:url(#linearGradient5514);stroke-width:1px;stroke-linecap:butt;stroke-linejoin:miter;stroke-opacity:1;filter:url(#filter5580)" id="path5258" d="M -6.350951,39.199177 -5.875,4.3001283 l 75.5,0.125 0.3125,34.5624997" transform="matrix(0.23149112,0,0,0.23149112,8.6022153,1.720808)"/><path style="opacity:.25;fill:#fff;fill-opacity:1;stroke:#fff;stroke-width:.24758735;stroke-linecap:round;stroke-linejoin:miter;stroke-miterlimit:4;stroke-dasharray:none;stroke-dashoffset:0;stroke-opacity:1;paint-order:fill markers stroke" id="path4931" d="M 7.5393511,2.7588336 18.392696,2.7613565 14.14068,11.004759 H 7.6275835 c -0.225634,0 -0.351215,-0.05626 -0.351215,-0.286384 V 3.1098296 c 0,-0.2464945 0.086286,-0.351033 0.2629826,-0.3509921 z"/><path id="rect5162" d="m 7.5124393,2.5193372 16.9854677,-0.00268 c 0.290553,-4.59e-5 0.494816,0.1904316 0.494816,0.5436852 l -9e-6,7.6514786 c 0,0.332 -0.236148,0.540669 -0.525354,0.540692 l -16.943972,0.0013 c -0.2288862,5.1e-5 -0.485492,-0.191347 -0.485492,-0.5446 V 3.0576531 c 0,-0.3532531 0.2021701,-0.5382729 0.4745341,-0.5383159 z" style="color:#000;display:inline;overflow:visible;visibility:visible;opacity:1;fill:none;stroke:#303030;stroke-width:1;stroke-linecap:round;stroke-linejoin:bevel;stroke-miterlimit:4;stroke-dasharray:none;stroke-dashoffset:0;stroke-opacity:1;marker:none;paint-order:fill markers stroke;enable-background:accumulate"/><path id="path6724-7" d="m 21.668548,6.2267975 h 0.592434 l 0.5755,0.8645894 0.562226,-0.8645894 h 0.601405 l -0.776089,1.1845562 0.830551,1.2254011 H 23.44478 L 22.843288,7.6972798 22.251596,8.636754 h -0.57624 L 22.45368,7.4045451 Z" style="opacity:.8;fill:#272863;fill-opacity:1;stroke:none;stroke-width:.01078299;stroke-linecap:butt;stroke-linejoin:miter;stroke-miterlimit:4;stroke-dasharray:none;stroke-opacity:1"/><rect id="rect5505-21-0" width="8" height="6" x="17.5" y="21.228" rx="1" ry="1" style="color:#000;display:inline;overflow:visible;visibility:visible;fill:url(#radialGradient3674);fill-opacity:1;fill-rule:nonzero;stroke:none;stroke-width:.99999994;marker:none;enable-background:accumulate"/><rect id="rect5505-21-3-2-3" width="8" height="6" x="17.5" y="21.228" rx="1" ry="1" style="color:#000;display:inline;overflow:visible;visibility:visible;opacity:.4;fill:none;stroke:#162023;stroke-width:.99999994;stroke-linecap:round;stroke-linejoin:round;stroke-miterlimit:4;stroke-dasharray:none;stroke-dashoffset:0;stroke-opacity:.79215686;marker:none;enable-background:accumulate"/><rect id="rect5505-21-0-8" width="8" height="6" x="17.5" y="13.228" rx="1" ry="1" style="color:#000;display:inline;overflow:visible;visibility:visible;fill:url(#linearGradient3656);fill-opacity:1;fill-rule:nonzero;stroke:none;stroke-width:.99999994;marker:none;enable-background:accumulate"/><rect id="rect6741-1-2" width="6" height="4" x="18.5" y="14.228" style="opacity:.3;fill:none;stroke:url(#linearGradient3653);stroke-width:.99999988;stroke-linecap:round;stroke-linejoin:round;stroke-miterlimit:4;stroke-dasharray:none;stroke-dashoffset:0;stroke-opacity:1"/><rect id="rect5505-21-3-2-3-9" width="8" height="6" x="17.5" y="13.228" rx="1" ry="1" style="color:#000;display:inline;overflow:visible;visibility:visible;opacity:.4;fill:none;stroke:#000;stroke-width:.99999994;stroke-linecap:round;stroke-linejoin:round;stroke-miterlimit:4;stroke-dasharray:none;stroke-dashoffset:0;stroke-opacity:1;marker:none;enable-background:accumulate"/><path style="color:#000;font-style:normal;font-variant:normal;font-weight:400;font-stretch:normal;font-size:9.881423px;line-height:125%;font-family:Helvetica;-inkscape-font-specification:Helvetica;letter-spacing:0;word-spacing:0;display:inline;overflow:visible;visibility:visible;opacity:.2;fill:#000;fill-opacity:1;fill-rule:nonzero;stroke:none;stroke-width:1;marker:none;enable-background:new" id="path3695" d="m 19.944441,16.334298 v 0.445178 h 0.388891 0.777778 0.77778 0.38889 0.777778 V 16.334298 H 22.27778 21.88889 21.11111 20.722221 Z"/><path style="font-style:normal;font-variant:normal;font-weight:400;font-stretch:normal;font-size:9.881423px;line-height:125%;font-family:Helvetica;-inkscape-font-specification:Helvetica;letter-spacing:0;word-spacing:0;display:inline;fill:#fff;fill-opacity:1;stroke:none;enable-background:new" id="path3685" d="m 19.944441,15.88912 v 0.445178 h 0.388891 0.777778 0.77778 0.38889 0.777778 V 15.88912 H 22.27778 21.88889 21.11111 20.722221 Z"/><g id="g3699" transform="translate(-0.055565,0.48456281)"><path id="path3691" d="m 20.000007,23.65786 v 0.445178 h 0.388891 0.777778 0.77778 0.38889 0.777778 V 23.65786 h -0.777778 -0.38889 -0.77778 -0.388889 z" style="color:#000;font-style:normal;font-variant:normal;font-weight:400;font-stretch:normal;font-size:9.881423px;line-height:125%;font-family:Helvetica;-inkscape-font-specification:Helvetica;letter-spacing:0;word-spacing:0;display:inline;overflow:visible;visibility:visible;opacity:.2;fill:#000;fill-opacity:1;fill-rule:nonzero;stroke:none;stroke-width:1;marker:none;enable-background:new"/><path id="path4249-4" d="m 20.000007,24.548216 v 0.445178 h 0.388891 0.777778 0.77778 0.38889 0.777778 v -0.445178 h -0.777778 -0.38889 -0.77778 -0.388889 z" style="color:#000;font-style:normal;font-variant:normal;font-weight:400;font-stretch:normal;font-size:9.881423px;line-height:125%;font-family:Helvetica;-inkscape-font-specification:Helvetica;letter-spacing:0;word-spacing:0;display:inline;overflow:visible;visibility:visible;opacity:.2;fill:#000;fill-opacity:1;fill-rule:nonzero;stroke:none;stroke-width:1;marker:none;enable-background:new"/><path id="path3681" d="m 20.000007,23.212682 v 0.445178 h 0.388891 0.777778 0.77778 0.38889 0.777778 v -0.445178 h -0.777778 -0.38889 -0.77778 -0.388889 z" style="font-style:normal;font-variant:normal;font-weight:400;font-stretch:normal;font-size:9.881423px;line-height:125%;font-family:Helvetica;-inkscape-font-specification:Helvetica;letter-spacing:0;word-spacing:0;display:inline;fill:#fff;fill-opacity:1;stroke:none;enable-background:new"/><path id="path4249" d="m 20.000007,24.103038 v 0.445178 h 0.388891 0.777778 0.77778 0.38889 0.777778 v -0.445178 h -0.777778 -0.38889 -0.77778 -0.388889 z" style="font-style:normal;font-variant:normal;font-weight:400;font-stretch:normal;font-size:9.881423px;line-height:125%;font-family:Helvetica;-inkscape-font-specification:Helvetica;letter-spacing:0;word-spacing:0;display:inline;fill:#fff;fill-opacity:1;stroke:none;enable-background:new"/></g><rect id="rect6741-1" width="6" height="4" x="18.5" y="22.228" style="opacity:.3;fill:none;stroke:url(#linearGradient3671);stroke-width:.99999994;stroke-linecap:round;stroke-linejoin:round;stroke-miterlimit:4;stroke-dasharray:none;stroke-dashoffset:0;stroke-opacity:1"/><rect id="rect5505-21-0-8-6" width="8" height="6" x="6.5" y="13.228" rx="1" ry="1" style="color:#000;display:inline;overflow:visible;visibility:visible;fill:url(#linearGradient3728);fill-opacity:1;fill-rule:nonzero;stroke:none;stroke-width:.99999994;marker:none;enable-background:accumulate"/><rect id="rect6741-1-2-8" width="6" height="4" x="7.5" y="14.228" style="opacity:.3;fill:none;stroke:url(#linearGradient3653-8);stroke-width:.99999988;stroke-linecap:round;stroke-linejoin:round;stroke-miterlimit:4;stroke-dasharray:none;stroke-dashoffset:0;stroke-opacity:1"/><rect id="rect5505-21-3-2-3-9-2" width="8" height="6" x="6.5" y="13.228" rx="1" ry="1" style="color:#000;display:inline;overflow:visible;visibility:visible;opacity:.4;fill:none;stroke:#000;stroke-width:.99999994;stroke-linecap:round;stroke-linejoin:round;stroke-miterlimit:4;stroke-dasharray:none;stroke-dashoffset:0;stroke-opacity:1;marker:none;enable-background:accumulate"/><rect id="rect5505-21-0-8-6-8" width="8" height="6" x="6.5" y="21.228" rx="1" ry="1" style="color:#000;display:inline;overflow:visible;visibility:visible;fill:url(#linearGradient3820);fill-opacity:1;fill-rule:nonzero;stroke:none;stroke-width:.99999994;marker:none;enable-background:accumulate"/><rect id="rect6741-1-2-8-0" width="6" height="4" x="7.5" y="22.228" style="opacity:.3;fill:none;stroke:url(#linearGradient3653-8-1);stroke-width:.99999988;stroke-linecap:round;stroke-linejoin:round;stroke-miterlimit:4;stroke-dasharray:none;stroke-dashoffset:0;stroke-opacity:1"/><rect id="rect5505-21-3-2-3-9-2-3" width="8" height="6" x="6.5" y="21.228" rx="1" ry="1" style="color:#000;display:inline;overflow:visible;visibility:visible;opacity:.4;fill:none;stroke:#000;stroke-width:.99999994;stroke-linecap:round;stroke-linejoin:round;stroke-miterlimit:4;stroke-dasharray:none;stroke-dashoffset:0;stroke-opacity:1;marker:none;enable-background:accumulate"/><g id="g3859" transform="translate(0.055569,8.2992898)"><path id="path3697" d="m 10.222209,14.754295 v 0.38953 0.779064 0.166941 H 10.055541 9.666652 8.888872 v 0.445178 h 0.388891 0.777778 0.166668 v 0.166942 0.389531 0.779062 h 0.444445 V 17.091481 16.70195 16.535008 h 0.166667 0.388891 0.777778 V 16.08983 h -0.777778 -0.388891 -0.166667 v -0.166941 -0.389532 -0.779062 z" style="color:#000;font-style:normal;font-variant:normal;font-weight:400;font-stretch:normal;font-size:9.881423px;line-height:125%;font-family:Helvetica;-inkscape-font-specification:Helvetica;letter-spacing:0;word-spacing:0;display:inline;overflow:visible;visibility:visible;opacity:.2;fill:#000;fill-opacity:1;fill-rule:nonzero;stroke:none;stroke-width:1;marker:none;enable-background:new"/><path id="path3687" d="m 10.222209,14.309116 v 0.389531 0.779062 0.166943 H 10.055541 9.666652 8.888872 v 0.445178 h 0.388891 0.777778 0.166668 v 0.166941 0.389531 0.779062 h 0.444445 V 16.646302 16.256771 16.08983 h 0.166667 0.388891 0.777778 v -0.445178 h -0.777778 -0.388891 -0.166667 v -0.166943 -0.389532 -0.779061 z" style="font-style:normal;font-variant:normal;font-weight:400;font-stretch:normal;font-size:9.881423px;line-height:125%;font-family:Helvetica;-inkscape-font-specification:Helvetica;letter-spacing:0;word-spacing:0;display:inline;fill:#fff;fill-opacity:1;stroke:none;enable-background:new"/></g><path style="opacity:.2;fill:#000;fill-opacity:1;stroke:#000;stroke-width:.2;stroke-linecap:butt;stroke-linejoin:miter;stroke-miterlimit:4;stroke-dasharray:none;stroke-opacity:1" id="path5193" d="m 9.0424408,16.688893 h 0.5159205 l 0.4430247,1.06449 1.07975,-2.524325 h 0.405428 l -1.355722,2.914376 H 9.8882254 L 9.4436521,16.980668 H 9.0424408 Z"/><path id="path5232" d="m 9.0503849,16.164702 h 0.51296 L 10,17.227956 l 1.070877,-2.391585 0.340964,-0.0018 -1.291258,2.784984 H 9.877966 L 9.4333928,16.499878 H 9.0503849 Z" style="opacity:1;fill:#fff;fill-opacity:1;stroke:#fff;stroke-width:.2;stroke-linecap:butt;stroke-linejoin:miter;stroke-miterlimit:4;stroke-dasharray:none;stroke-opacity:1"/></svg>